<svg xmlns="http://www.w3.org/2000/svg" viewBox="126 292 593 591" role="img" aria-label="Barbearia VIP"><title>Barbearia VIP</title><g transform="translate(0.000000,1040.000000) scale(0.100000,-0.100000)"
fill="#EBB903" stroke="none">
<path d="M4020 7424 c-118 -9 -188 -20 -245 -38 -44 -14 -134 -35 -200 -46
-66 -12 -136 -28 -155 -37 -19 -8 -76 -22 -125 -32 -50 -11 -129 -35 -175 -54
-214 -90 -298 -130 -345 -167 -28 -22 -87 -56 -130 -76 -44 -19 -120 -65 -170
-102 -49 -36 -103 -75 -120 -88 -16 -12 -86 -75 -155 -140 -69 -66 -136 -128
-150 -139 -29 -22 -200 -248 -200 -263 0 -6 -31 -57 -68 -114 -37 -56 -94
-157 -126 -223 -33 -66 -71 -135 -84 -154 -14 -19 -33 -62 -43 -95 -53 -182
-79 -257 -111 -317 -28 -51 -37 -83 -43 -140 -3 -41 -15 -112 -25 -159 -61
-275 -63 -936 -4 -1102 8 -24 19 -86 24 -140 6 -77 15 -112 43 -175 20 -43 43
-105 51 -139 9 -34 27 -81 40 -105 14 -24 28 -61 31 -82 4 -21 17 -52 30 -70
25 -37 135 -259 135 -272 0 -19 118 -185 185 -260 39 -44 90 -106 114 -137 23
-32 45 -58 49 -58 4 0 50 -42 102 -93 105 -101 214 -193 302 -251 32 -21 79
-57 105 -80 27 -23 93 -66 147 -95 55 -29 113 -63 131 -76 31 -25 120 -64 255
-114 42 -16 100 -42 130 -59 31 -17 84 -35 122 -41 36 -6 85 -18 107 -26 236
-83 1305 -87 1555 -6 34 11 88 25 120 30 33 6 84 25 114 42 31 17 77 37 103
45 26 8 73 28 104 44 32 17 65 30 75 30 9 0 47 19 83 42 37 24 101 63 144 87
42 25 90 57 107 71 17 14 48 36 69 48 159 92 625 566 704 717 20 39 60 102 90
141 29 40 53 76 53 80 0 17 113 239 136 266 12 15 28 54 34 85 7 32 24 87 39
123 15 36 35 96 45 134 9 37 28 91 43 119 21 42 28 77 39 202 8 82 21 182 28
220 30 147 27 472 -5 612 -6 27 -16 116 -23 199 -11 132 -17 159 -44 220 -17
38 -38 100 -47 138 -8 38 -25 90 -36 115 -11 25 -26 71 -33 102 -8 31 -30 80
-50 109 -20 29 -36 60 -36 69 0 9 -13 37 -28 62 -15 24 -36 65 -45 91 -10 26
-32 64 -48 85 -17 21 -42 60 -55 88 -70 146 -480 586 -749 804 -38 32 -110 77
-160 101 -49 24 -112 58 -140 76 -57 37 -158 84 -260 121 -38 14 -95 38 -125
53 -30 15 -83 32 -118 39 -34 7 -82 19 -105 27 -23 8 -82 24 -132 34 -49 10
-135 35 -190 55 -153 55 -347 66 -685 39z m365 -389 c64 -9 160 -27 212 -40
60 -16 123 -25 170 -25 58 0 97 -8 179 -35 57 -19 110 -35 117 -35 7 0 53 -20
103 -45 49 -24 95 -45 102 -45 17 0 200 -97 295 -156 43 -27 102 -63 132 -81
164 -96 556 -489 633 -635 19 -35 44 -74 57 -88 12 -14 46 -70 75 -125 29 -55
65 -120 80 -145 16 -25 35 -68 43 -96 8 -28 27 -74 41 -103 15 -28 31 -75 37
-104 5 -28 23 -86 39 -129 19 -49 34 -112 41 -175 6 -54 17 -141 25 -193 27
-180 30 -389 6 -540 -12 -74 -26 -179 -32 -232 -6 -60 -21 -127 -40 -178 -16
-44 -34 -109 -40 -143 -11 -71 -73 -223 -117 -288 -16 -24 -37 -64 -47 -89
-26 -67 -74 -149 -116 -200 -20 -25 -49 -68 -63 -95 -14 -28 -49 -77 -79 -110
-29 -33 -78 -89 -107 -125 -122 -148 -351 -339 -555 -464 -17 -10 -53 -33 -81
-50 -27 -17 -90 -50 -140 -72 -49 -23 -126 -58 -170 -79 -44 -20 -118 -47
-165 -60 -47 -12 -110 -32 -140 -43 -30 -11 -104 -25 -165 -32 -60 -6 -132
-18 -159 -25 -175 -52 -435 -52 -651 0 -55 13 -143 29 -196 34 -53 6 -125 20
-160 31 -35 11 -97 27 -138 35 -46 9 -91 26 -122 46 -27 17 -68 37 -93 44 -65
20 -214 94 -250 125 -17 15 -64 44 -105 65 -40 22 -97 60 -125 85 -28 25 -85
73 -126 107 -119 96 -187 174 -225 256 -23 50 -46 83 -71 102 -20 15 -60 64
-89 109 -29 45 -72 104 -95 131 -24 28 -59 75 -78 105 -19 30 -49 73 -67 95
-36 45 -119 216 -130 267 -4 18 -24 65 -45 104 -38 70 -67 190 -112 473 -16
104 -5 673 16 741 9 30 23 102 31 160 12 83 24 122 54 185 22 44 44 98 50 121
18 68 99 232 135 272 18 20 63 82 99 137 66 101 153 217 231 310 24 28 61 77
83 110 75 111 169 211 247 263 41 28 90 61 108 75 18 14 70 43 115 66 45 22
105 61 133 86 28 25 55 45 61 45 6 0 30 14 53 30 23 17 65 37 93 44 28 8 67
26 86 40 22 17 62 32 108 42 41 8 103 26 138 40 41 16 110 31 185 40 67 8 148
22 181 30 157 41 332 51 500 29z"/>
<path d="M4037 6290 c-54 -16 -136 -88 -163 -143 -15 -29 -41 -68 -58 -88 -17
-20 -43 -58 -58 -83 -51 -87 -165 -106 -349 -60 -109 27 -231 5 -291 -53 -88
-84 -124 -386 -90 -743 20 -208 25 -297 18 -323 -14 -56 -55 -70 -131 -42 -22
8 -58 14 -80 15 -22 0 -67 12 -100 26 -146 63 -209 52 -304 -52 -73 -80 -81
-114 -47 -208 62 -169 213 -327 348 -364 20 -5 57 -24 82 -41 32 -22 70 -37
123 -47 42 -8 95 -21 118 -29 62 -20 453 -50 645 -49 192 2 377 24 487 58 43
13 98 27 123 31 25 4 77 24 115 45 39 21 88 43 110 50 52 17 180 82 230 119
22 15 74 50 115 77 85 55 300 222 300 233 0 4 27 34 60 67 34 32 88 100 122
149 34 50 79 110 101 135 21 25 58 86 82 135 24 50 59 116 78 147 34 57 47
113 64 284 8 77 -24 239 -54 274 -44 53 -103 73 -201 68 -121 -6 -158 -28
-329 -198 -144 -143 -164 -157 -199 -137 -30 17 -102 100 -154 177 -95 140
-444 466 -573 534 -93 48 -96 49 -140 36z m1001 -948 c13 -21 17 -47 15 -125
-2 -140 -17 -166 -200 -352 -186 -189 -317 -294 -402 -323 -19 -7 -55 -25 -80
-41 -25 -16 -71 -36 -101 -44 -30 -9 -83 -27 -117 -41 -44 -19 -99 -30 -200
-41 -76 -9 -173 -22 -217 -30 -104 -20 -172 -19 -281 4 -50 11 -128 25 -175
31 -128 17 -176 55 -168 133 5 56 21 59 323 52 149 -3 347 -2 440 3 l170 8 68
42 c38 22 83 44 100 47 18 4 55 20 82 35 28 15 67 33 88 40 80 25 341 270 402
375 16 28 41 68 55 90 15 22 43 65 63 96 54 81 100 95 135 41z"/>
<path d="M3775 3579 c-21 -5 -48 -18 -60 -28 -27 -26 -108 -73 -235 -139 -174
-89 -239 -83 -328 29 -84 107 -97 118 -121 112 -28 -7 -37 -26 -52 -107 -10
-53 -10 -77 -1 -112 31 -115 221 -335 314 -363 18 -5 58 -18 89 -30 135 -49
395 -45 518 8 36 16 81 32 99 36 18 4 45 18 61 31 97 81 205 81 328 -1 21 -13
63 -33 93 -43 31 -11 75 -29 99 -41 57 -29 179 -37 335 -22 162 16 279 65 358
151 125 135 181 301 119 351 -33 27 -55 24 -130 -18 -104 -58 -184 -59 -285
-3 -42 23 -89 52 -104 64 -15 13 -43 31 -62 41 -19 9 -59 34 -89 54 l-54 36
-126 0 c-125 -1 -127 -1 -201 -38 -100 -49 -145 -50 -237 -1 -64 35 -74 37
-178 40 -60 2 -128 -1 -150 -7z"/>
</g></svg>
